<?xml version="1.0" encoding="UTF-8" standalone="no"?>
<!-- Created with Inkscape (http://www.inkscape.org/) -->

<svg
   xmlns:dc="http://purl.org/dc/elements/1.1/"
   xmlns:cc="http://creativecommons.org/ns#"
   xmlns:rdf="http://www.w3.org/1999/02/22-rdf-syntax-ns#"
   xmlns:svg="http://www.w3.org/2000/svg"
   xmlns="http://www.w3.org/2000/svg"
   xmlns:sodipodi="http://sodipodi.sourceforge.net/DTD/sodipodi-0.dtd"
   xmlns:inkscape="http://www.inkscape.org/namespaces/inkscape"
   width="384.50699mm"
   height="168.095mm"
   viewBox="0 0 384.50699 168.095"
   version="1.1"
   id="svg8"
   inkscape:version="0.92.3 (2405546, 2018-03-11)"
   sodipodi:docname="hr system.svg">
  <defs
     id="defs2">
    <clipPath
       id="clipPath38"
       clipPathUnits="userSpaceOnUse">
      <path
         inkscape:connector-curvature="0"
         id="path36"
         d="M 0,1200 H 1000 V 0 H 0 Z" />
    </clipPath>
    <path
       d="m 520.69,11.113 a 5.54,5.54 0 0 0 -7.836,0 l -0.11,0.11 -0.11,-0.11 a 5.5408887,5.5408887 0 1 0 -7.836,7.836 l 7.945,7.945 7.945,-7.945 a 5.54,5.54 0 0 0 0,-7.836"
       id="B"
       inkscape:connector-curvature="0" />
    <path
       d="m 261.514,249.4 h -2.667 v -2.667 h 2.667 z m 5.333,0 h -2.667 v -2.667 h 2.667 z m 5.333,0 h -2.667 v -2.667 h 2.667 z m 5.333,0 h -2.667 v -2.667 h 2.667 z m 5.333,0 h -2.667 v -2.667 h 2.667 z m 5.333,0 h -2.667 v -2.667 h 2.667 v 2.667"
       id="C"
       inkscape:connector-curvature="0" />
    <path
       d="m 242.2,92.894 3.533,7.16 7.903,1.148 -5.717,5.573 1.35,7.87 -7.068,-3.716 -7.068,3.716 1.35,-7.87 -5.717,-5.573 7.9,-1.148 3.535,-7.16"
       id="D"
       inkscape:connector-curvature="0" />
    <path
       d="m 604.726,86.18 c 0,-4.232 -3.76,-7.993 -7.993,-7.993 4.232,0 7.993,-3.76 7.993,-7.993 0,4.232 3.76,7.993 7.993,7.993 -4.232,0 -7.993,3.76 -7.993,7.993"
       id="E"
       inkscape:connector-curvature="0" />
  </defs>
  <sodipodi:namedview
     id="base"
     pagecolor="#ffffff"
     bordercolor="#666666"
     borderopacity="1.0"
     inkscape:pageopacity="0.0"
     inkscape:pageshadow="2"
     inkscape:zoom="0.49497475"
     inkscape:cx="627.87524"
     inkscape:cy="634.25183"
     inkscape:document-units="mm"
     inkscape:current-layer="layer1"
     showgrid="false"
     inkscape:pagecheckerboard="true"
     inkscape:window-width="1920"
     inkscape:window-height="1001"
     inkscape:window-x="-9"
     inkscape:window-y="-9"
     inkscape:window-maximized="1" />
  <metadata
     id="metadata5">
    <rdf:RDF>
      <cc:Work
         rdf:about="">
        <dc:format>image/svg+xml</dc:format>
        <dc:type
           rdf:resource="http://purl.org/dc/dcmitype/StillImage" />
        <dc:title></dc:title>
      </cc:Work>
    </rdf:RDF>
  </metadata>
  <g
     inkscape:label="Layer 1"
     inkscape:groupmode="layer"
     id="layer1"
     transform="translate(0,-128.905)">
    <g
       transform="matrix(0.35277777,0,0,-0.35277777,6.0643536e-6,297)"
       inkscape:label="Color-52"
       id="g10">
      <g
         transform="translate(2717.688,635.96731)"
         id="g426" />
      <g
         transform="translate(2698.3042,584.95271)"
         id="g430" />
      <g
         transform="translate(2808.398,773.56991)"
         id="g454" />
      <g
         transform="translate(2739.2652,584.95271)"
         id="g466" />
      <g
         transform="translate(2855.2002,589.17241)"
         id="g470" />
      <g
         transform="translate(2905.4492,635.96731)"
         id="g474" />
      <g
         transform="translate(3019.7544,584.95271)"
         id="g480" />
      <g
         transform="translate(3091.1001,636.06301)"
         id="g484" />
      <g
         transform="translate(3169.063,584.95271)"
         id="g488" />
      <g
         transform="translate(3264.3819,633.37751)"
         id="g494" />
      <g
         transform="translate(3306.6724,584.95271)"
         id="g498" />
      <g
         transform="translate(3412.6343,589.17241)"
         id="g502" />
      <g
         transform="translate(2790.7593,625.72021)"
         id="g506" />
      <g
         transform="translate(2866.1182,606.91171)"
         id="g510" />
      <g
         transform="translate(2907.4492,584.95271)"
         id="g514" />
      <g
         transform="translate(3058.6485,643.93461)"
         id="g518" />
      <g
         transform="translate(3128.7749,584.95271)"
         id="g522" />
      <g
         transform="translate(3396.23,606.85211)"
         id="g526" />
      <g
         transform="translate(3041.1573,585.43611)"
         id="g558" />
      <g
         transform="matrix(-1,0,0,1,2979.5999,598.56111)"
         id="g562" />
      <g
         transform="translate(2998.0171,599.33651)"
         id="g566" />
      <g
         transform="translate(3026.8658,637.75051)"
         id="g570" />
      <g
         transform="translate(2996.8579,625.70071)"
         id="g578" />
      <g
         transform="translate(2962.2652,647.68021)"
         id="g582" />
      <g
         transform="translate(2965.8433,659.07431)"
         id="g586" />
      <g
         transform="translate(3007.9395,643.51611)"
         id="g590" />
      <g
         transform="translate(3231.875,575.28371)"
         id="g594" />
      <g
         transform="translate(3230.5074,529.64111)"
         id="g598" />
      <g
         transform="translate(3195.0503,529.64111)"
         id="g602" />
      <g
         transform="translate(3220.7842,561.61181)"
         id="g606" />
      <g
         transform="translate(3176.9395,613.48881)"
         id="g610" />
      <g
         transform="translate(3181.8023,596.69001)"
         id="g614" />
      <g
         transform="translate(3232.1294,596.69001)"
         id="g618" />
      <g
         transform="translate(3206.3843,580.27201)"
         id="g622" />
      <g
         transform="translate(3203.0655,619.45851)"
         id="g630" />
      <g
         transform="translate(3091.9932,729.70901)"
         id="g676" />
      <g
         transform="translate(-2605.079,-396.28861)"
         id="g2833">
        <g
           id="g434"
           transform="translate(2828.4898,542.40481)">
          <path
             d="m 0,0 c -7.792,15.833 -23.978,26.775 -42.753,27.035 -9.445,19.113 -29.132,32.268 -51.894,32.268 -25.796,0 -47.643,-16.886 -55.109,-40.201 -17.616,-2.367 -31.213,-17.423 -31.213,-35.687 0,-19.905 16.138,-36.044 36.046,-36.044 1.473,0 8.507,-0.016 18.674,-0.033 -8.596,-12.695 -23.778,-31.076 -23.778,-31.076 l 53.032,31.045 c 40.007,-0.026 90.436,0.04 90.858,0.545 12.784,2.367 22.471,13.557 22.471,27.029 C 16.334,-13.912 9.618,-4.285 0,0"
             style="fill:#cdd5d8;fill-opacity:1;fill-rule:nonzero;stroke:none"
             id="path436"
             inkscape:connector-curvature="0" />
        </g>
        <g
           id="g438"
           transform="translate(3318.4605,664.74271)">
          <path
             d="m 0,0 c 9.945,2.77 18.872,8.761 25.137,17.152 l 2.34,3.133 3.69,-1.292 c 3.808,-1.334 7.787,-2.175 11.828,-2.501 1.252,-0.099 2.526,-0.15 3.781,-0.15 6.034,0 11.932,1.143 17.53,3.399 l 3.698,1.492 2.473,-3.129 C 76.709,10.218 85.619,5.436 95.565,4.639 c 0.96,-0.077 1.932,-0.117 2.89,-0.117 17.411,0 32.156,12.47 35.061,29.653 l 0.745,4.403 4.466,0.035 c 18.589,0.147 33.727,14.237 35.211,32.774 0.761,9.489 -2.22,18.705 -8.392,25.951 -6.173,7.247 -14.799,11.656 -24.287,12.415 -0.485,0.04 -0.96,0.04 -1.435,0.045 l -4.387,0.076 -1.208,3.535 c -6.078,17.769 -22.088,30.216 -40.791,31.713 -1.258,0.102 -2.533,0.153 -3.789,0.153 -9.411,0 -18.53,-2.82 -26.372,-8.154 l -2.41,-1.639 -2.679,1.145 c -5.266,2.25 -11.02,3.639 -17.101,4.125 -1.55,0.125 -3.115,0.188 -4.653,0.188 -14.144,0 -26.954,-5.407 -32.633,-13.772 l -1.358,-1.997 -2.396,-0.298 c -22.029,-2.726 -39.307,-20.793 -41.084,-42.957 -2.07,-25.872 17.292,-48.607 43.16,-50.681 1.189,-0.093 2.422,-0.141 3.661,-0.141 0.866,0 1.76,0.023 2.655,0.068 l 7.396,0.383 -1.99,-7.134 C 12.605,19.965 10.848,15.694 8.622,11.715 6.229,7.426 3.332,3.497 0,0"
             style="fill:#cdd5d8;fill-opacity:1;fill-rule:nonzero;stroke:none"
             id="path440"
             inkscape:connector-curvature="0" />
        </g>
        <g
           id="g442"
           transform="translate(3143.2349,535.33161)">
          <path
             d="m 0,0 h -50.746 v 22.812 h 9.022 V 33.487 L -29.922,22.812 H 0 Z"
             style="fill:#84dbff;fill-opacity:1;fill-rule:nonzero;stroke:none"
             id="path444"
             inkscape:connector-curvature="0" />
        </g>
        <g
           id="g446"
           transform="translate(3101.1304,547.01811)">
          <path
             d="M 0,0 H 34.705 Z"
             style="fill:#34ca9d;fill-opacity:1;fill-rule:nonzero;stroke:none"
             id="path448"
             inkscape:connector-curvature="0" />
        </g>
        <g
           id="g450"
           transform="translate(2847.4019,723.49661)">
          <path
             d="m 0,0 c 16.64,0 30.13,-11.803 30.13,-26.361 0,-5.311 -1.801,-10.248 -4.884,-14.386 l 3.368,-12.574 -14.199,3.803 C 10.133,-51.563 5.223,-52.726 0,-52.726 c -16.641,0 -30.129,11.801 -30.129,26.365 C -30.129,-11.803 -16.641,0 0,0"
             style="fill:#cdd5d8;fill-opacity:1;fill-rule:nonzero;stroke:none"
             id="path452"
             inkscape:connector-curvature="0" />
        </g>
        <g
           id="g462"
           transform="translate(3661.2713,716.94939)">
          <g
             id="g2633">
            <path
               inkscape:connector-curvature="0"
               id="path456"
               style="fill:#282d33;fill-opacity:1;fill-rule:nonzero;stroke:none"
               d="m 0,0 c -27.97,0 -50.726,-19.8 -50.726,-44.138 0,-9.356 3.335,-18.301 9.643,-25.869 l 0.664,-0.797 -5.423,-20.238 24.945,6.683 0.603,-0.23 c 6.427,-2.444 13.255,-3.683 20.294,-3.683 27.97,0 50.726,19.798 50.726,44.134 C 50.726,-19.8 27.97,0 0,0 m -51.499,-96.699 6.683,24.94 c -6.487,8.123 -9.91,17.651 -9.91,27.621 C -54.726,-17.594 -30.176,4 0,4 30.176,4 54.726,-17.594 54.726,-44.138 54.726,-70.679 30.176,-92.272 0,-92.272 c -7.305,0 -14.401,1.25 -21.105,3.716 z"
               transform="translate(-20.97848,34.892599)" />
            <path
               inkscape:connector-curvature="0"
               id="path458"
               style="fill:#282d33;fill-opacity:1;fill-rule:nonzero;stroke:none"
               d="m 2833.3519,748.89141 h -9.11 v 4 h 9.11 z"
               transform="translate(-2829.3765,-738.67731)" />
            <path
               inkscape:connector-curvature="0"
               id="path460"
               style="fill:#282d33;fill-opacity:1;fill-rule:nonzero;stroke:none"
               d="m 2799.8079,748.89141 h -9.11 v 4 h 9.11 z"
               transform="translate(-2829.3765,-738.67731)" />
            <path
               inkscape:connector-curvature="0"
               id="path464"
               style="fill:#84dbff;fill-opacity:1;fill-rule:nonzero;stroke:none"
               d="m 0,0 c -0.431,-10.712 -8.16,-19.254 -17.66,-19.254 -9.501,0 -17.231,8.542 -17.66,19.254 z" />
          </g>
        </g>
        <g
           id="g530"
           transform="translate(2656.2886,459.12851)">
          <path
             d="m 0,0 c -2.16,0 -3.917,-1.758 -3.917,-3.918 0,-2.16 1.757,-3.917 3.917,-3.917 2.161,0 3.918,1.757 3.918,3.917 C 3.918,-1.758 2.161,0 0,0 m 0,-11.835 c -4.366,0 -7.917,3.552 -7.917,7.917 C -7.917,0.448 -4.366,4 0,4 4.366,4 7.918,0.448 7.918,-3.918 7.918,-8.283 4.366,-11.835 0,-11.835"
             style="fill:#282d33;fill-opacity:1;fill-rule:nonzero;stroke:none"
             id="path532"
             inkscape:connector-curvature="0" />
        </g>
        <g
           id="g534"
           transform="translate(2647.9527,443.11971)">
          <path
             d="m 0,0 c 2.351,-1.943 5.279,-3.004 8.336,-3.004 3.057,0 5.985,1.061 8.336,3.004 -0.202,1.973 -1.873,3.517 -3.897,3.517 H 3.899 C 1.874,3.517 0.202,1.973 0,0 m 8.336,-7.004 c -4.369,0 -8.534,1.657 -11.728,4.665 l -0.628,0.592 v 1.346 c 0,4.366 3.552,7.918 7.919,7.918 h 8.876 c 4.366,0 7.917,-3.552 7.917,-7.918 V -1.747 L 20.064,-2.339 C 16.87,-5.347 12.705,-7.004 8.336,-7.004"
             style="fill:#282d33;fill-opacity:1;fill-rule:nonzero;stroke:none"
             id="path536"
             inkscape:connector-curvature="0" />
        </g>
        <g
           id="g538"
           transform="translate(3474.4702,586.27491)">
          <path
             d="m 0,0 c 0,-8.127 -6.589,-14.716 -14.715,-14.716 -8.128,0 -14.716,6.589 -14.716,14.716 0,8.126 6.588,14.715 14.716,14.715 C -6.589,14.715 0,8.126 0,0"
             style="fill:#cdd5d8;fill-opacity:1;fill-rule:nonzero;stroke:none"
             id="path540"
             inkscape:connector-curvature="0" />
        </g>
        <g
           id="g542"
           transform="translate(3464.6065,588.24661)">
          <path
             d="m 0,0 c 0,-2.68 -2.172,-4.852 -4.853,-4.852 -2.678,0 -4.851,2.172 -4.851,4.852 0,2.681 2.173,4.854 4.851,4.854 C -2.172,4.854 0,2.681 0,0"
             style="fill:#34ca9d;fill-opacity:1;fill-rule:nonzero;stroke:none"
             id="path544"
             inkscape:connector-curvature="0" />
        </g>
        <g
           id="g546"
           transform="translate(3464.1929,581.67241)">
          <path
             d="m 0,0 h -8.876 c -3.269,0 -5.919,-2.65 -5.919,-5.918 v -0.481 c 2.706,-2.549 6.346,-4.122 10.356,-4.122 4.013,0 7.649,1.573 10.356,4.122 v 0.481 C 5.917,-2.65 3.269,0 0,0"
             style="fill:#34ca9d;fill-opacity:1;fill-rule:nonzero;stroke:none"
             id="path548"
             inkscape:connector-curvature="0" />
        </g>
        <g
           id="g550"
           transform="translate(3288.0142,650.52791)">
          <path
             d="m 0,0 c -0.738,0 -1.338,-0.708 -1.338,-1.578 v -40.619 c 0,-0.87 0.6,-1.578 1.338,-1.578 h 8.468 v -11.111 l 13.118,11.111 H 54.84 c 0.741,0 1.344,0.708 1.344,1.578 V -1.578 C 56.184,-0.708 55.581,0 54.84,0 Z m 4.468,-63.516 v 15.741 H 0 c -2.943,0 -5.338,2.502 -5.338,5.578 V -1.578 C -5.338,1.497 -2.943,4 0,4 h 54.84 c 2.947,0 5.344,-2.503 5.344,-5.578 v -40.619 c 0,-3.076 -2.397,-5.578 -5.344,-5.578 H 23.052 Z"
             style="fill:#282d33;fill-opacity:1;fill-rule:nonzero;stroke:none"
             id="path552"/>
        </g>
        <g
           id="g554"
           transform="translate(3310.9693,635.72611)">
          <path
             d="m 0,0 v -13.8 l 11.95,6.901 z M -4,-20.727 V 6.928 L 19.949,-6.899 Z"
             style="fill:#282d33;fill-opacity:1;fill-rule:nonzero;stroke:none"
             id="path556"
             inkscape:connector-curvature="0" />
        </g>
        <g
           id="g2668"
           transform="translate(345.77522,2.1213204)">
          <g
             transform="translate(3186.7549,652.35211)"
             id="g626">
            <g
               id="g2652">
              <path
                 transform="translate(45.120131,-77.068398)"
                 d="m 0,0 h -38.79 c -9.148,0 -16.564,-7.415 -16.564,-16.564 V -43.15 h 71.918 v 26.586 C 16.564,-7.415 9.148,0 0,0"
                 style="fill:#cdd5d8;fill-opacity:1;fill-rule:nonzero;stroke:none"
                 id="path596"
                 inkscape:connector-curvature="0" />
              <path
                 transform="translate(43.752506,-122.711)"
                 d="m 0,0 h -4 v 33.885 c 0,4.4 -1.766,7.094 -2.728,7.094 v 4 C -2.892,44.979 0,40.21 0,33.885 Z"
                 style="fill:#282d33;fill-opacity:1;fill-rule:nonzero;stroke:none"
                 id="path600"
                 inkscape:connector-curvature="0" />
              <path
                 transform="translate(8.2954299,-122.711)"
                 d="m 0,0 h -4 v 33.885 c 0,6.325 2.892,11.094 6.727,11.094 v -4 C 1.766,40.979 0,38.285 0,33.885 Z"
                 style="fill:#282d33;fill-opacity:1;fill-rule:nonzero;stroke:none"
                 id="path604"
                 inkscape:connector-curvature="0" />
              <path
                 transform="translate(34.029281,-90.740298)"
                 d="m 0,0 h -20.012 v 21.1 h 4 V 4 H -4 v 19.389 h 4 z"
                 style="fill:#282d33;fill-opacity:1;fill-rule:nonzero;stroke:none"
                 id="path608"
                 inkscape:connector-curvature="0" />
              <path
                 transform="translate(-9.8154206,-38.8633)"
                 d="m 0,0 c -7.17,3.727 -11.625,11.206 -11.625,19.516 0,12.034 9.449,21.825 21.063,21.825 v -4 c -9.408,0 -17.063,-7.997 -17.063,-17.825 0,-6.812 3.629,-12.931 9.47,-15.967 z"
                 style="fill:#282d33;fill-opacity:1;fill-rule:nonzero;stroke:none"
                 id="path612"
                 inkscape:connector-curvature="0" />
              <path
                 transform="translate(-4.9525705,-55.6621)"
                 d="m 0,0 c -7.83,0 -14.199,6.589 -14.199,14.689 0,3.459 1.184,6.819 3.336,9.46 l 3.101,-2.525 C -9.333,19.693 -10.199,17.23 -10.199,14.689 -10.199,8.795 -5.624,4 0,4 Z"
                 style="fill:#282d33;fill-opacity:1;fill-rule:nonzero;stroke:none"
                 id="path616"
                 inkscape:connector-curvature="0" />
              <path
                 transform="translate(45.374531,-55.6621)"
                 d="m 0,0 v 4 c 5.625,0 10.2,4.795 10.2,10.689 0,4.066 -2.157,7.729 -5.629,9.559 l 1.864,3.539 C 11.225,25.263 14.2,20.244 14.2,14.689 14.2,6.589 7.83,0 0,0"
                 style="fill:#282d33;fill-opacity:1;fill-rule:nonzero;stroke:none"
                 id="path620"
                 inkscape:connector-curvature="0" />
              <path
                 transform="translate(19.62943,-72.080103)"
                 d="m 0,0 c -16.101,0 -29.2,13.099 -29.2,29.199 v 21.762 c 0,7.206 2.647,14.126 7.454,19.486 l 2.978,-2.671 C -22.916,63.151 -25.2,57.18 -25.2,50.961 V 29.199 C -25.2,15.304 -13.896,4 0,4 13.895,4 25.2,15.304 25.2,29.199 v 11.559 h 4 V 29.199 C 29.2,13.099 16.101,0 0,0"
                 style="fill:#282d33;fill-opacity:1;fill-rule:nonzero;stroke:none"
                 id="path624"
                 inkscape:connector-curvature="0" />
              <path
                 d="m 0,0 22.677,-22.678 c 4.807,-4.807 11.198,-7.454 17.996,-7.454 6.798,0 13.189,2.647 17.996,7.454 l 2.092,2.091 -17.963,17.963 C 36.686,3.487 28.561,6.853 19.919,6.853 12.662,6.853 5.667,4.433 0,0 m 40.673,-34.132 c -7.866,0 -15.262,3.063 -20.824,8.626 L -5.87,0.212 l 1.578,1.41 c 6.66,5.952 15.258,9.231 24.211,9.231 9.711,0 18.84,-3.782 25.707,-10.649 l 20.792,-20.791 -4.92,-4.919 c -5.563,-5.563 -12.959,-8.626 -20.825,-8.626"
                 style="fill:#282d33;fill-opacity:1;fill-rule:nonzero;stroke:none"
                 id="path628"
                 inkscape:connector-curvature="0" />
            </g>
          </g>
          <path
             inkscape:connector-curvature="0"
             id="path632"
             style="fill:#282d33;fill-opacity:1;fill-rule:nonzero;stroke:none"
             d="m 0,0 h -4 c 0,2.582 -2.1,4.683 -4.68,4.683 -2.582,0 -4.682,-2.101 -4.682,-4.683 h -4 c 0,4.788 3.895,8.683 8.682,8.683 C -3.894,8.683 0,4.788 0,0"
             transform="translate(3203.0655,619.45851)" />
          <path
             inkscape:connector-curvature="0"
             id="path634"
             style="fill:#282d33;fill-opacity:1;fill-rule:nonzero;stroke:none"
             d="m 3210.7789,598.21541 h -10.294 v 4 h 10.294 z" />
        </g>
        <g
           id="g636"
           transform="translate(2947.982,760.67241)">
          <path
             d="m 0,0 c 0,-16.771 -13.596,-30.366 -30.366,-30.366 -16.77,0 -30.365,13.595 -30.365,30.366 0,16.77 13.595,30.365 30.365,30.365 C -13.596,30.365 0,16.77 0,0"
             style="fill:#84dbff;fill-opacity:1;fill-rule:nonzero;stroke:none"
             id="path638"
             inkscape:connector-curvature="0" />
        </g>
        <g
           id="g640"
           transform="translate(2986.3384,784.64511)">
          <path
             d="m 0,0 c 0,-16.77 -13.595,-30.365 -30.365,-30.365 -16.771,0 -30.365,13.595 -30.365,30.365 0,16.771 13.594,30.365 30.365,30.365 C -13.595,30.365 0,16.771 0,0"
             style="fill:#84dbff;fill-opacity:1;fill-rule:nonzero;stroke:none"
             id="path642"
             inkscape:connector-curvature="0" />
        </g>
        <g
           id="g644"
           transform="translate(3039.0772,762.27011)">
          <path
             d="m 0,0 c 0,-22.067 -17.888,-39.955 -39.955,-39.955 -22.065,0 -39.954,17.888 -39.954,39.955 0,22.064 17.889,39.955 39.954,39.955 C -17.888,39.955 0,22.064 0,0"
             style="fill:#84dbff;fill-opacity:1;fill-rule:nonzero;stroke:none"
             id="path646"
             inkscape:connector-curvature="0" />
        </g>
        <g
           id="g648"
           transform="translate(2995.9273,754.27791)"
           style="fill:#76d1d7;fill-opacity:1">
          <path
             d="m 0,0 c 0,-22.066 -17.888,-39.953 -39.955,-39.953 -22.066,0 -39.954,17.887 -39.954,39.953 0,22.066 17.888,39.956 39.954,39.956 C -17.888,39.956 0,22.066 0,0"
             style="fill:#84dbff;fill-opacity:1;fill-rule:nonzero;stroke:none"
             id="path650"
             inkscape:connector-curvature="0" />
        </g>
        <g
           id="g652"
           transform="translate(3052.9292,759.87361)">
          <path
             d="m 0,0 c 0,-8.387 -6.798,-15.184 -15.183,-15.184 -8.385,0 -15.182,6.797 -15.182,15.184 0,8.385 6.797,15.182 15.182,15.182 C -6.798,15.182 0,8.385 0,0"
             style="fill:#84dbff;fill-opacity:1;fill-rule:nonzero;stroke:none"
             id="path654"
             inkscape:connector-curvature="0" />
        </g>
        <g
           id="g656"
           transform="translate(2953.5752,732.70361)">
          <path
             d="m 0,0 c 0,-13.24 -10.733,-23.973 -23.972,-23.973 -13.24,0 -23.973,10.733 -23.973,23.973 0,13.238 10.733,23.972 23.973,23.972 C -10.733,23.972 0,13.238 0,0"
             style="fill:#84dbff;fill-opacity:1;fill-rule:nonzero;stroke:none"
             id="path658"
             inkscape:connector-curvature="0" />
        </g>
        <g
           id="g660"
           transform="translate(2924.8428,696.74471)">
          <path
             d="m 0,0 c 0,-5.378 -4.361,-9.738 -9.738,-9.738 -5.38,0 -9.74,4.36 -9.74,9.738 0,5.379 4.36,9.74 9.74,9.74 C -4.361,9.74 0,5.379 0,0"
             style="fill:#84dbff;fill-opacity:1;fill-rule:nonzero;stroke:none"
             id="path662"
             inkscape:connector-curvature="0" />
        </g>
        <g
           id="g664"
           transform="translate(2907.4615,674.82671)">
          <path
             d="m 0,0 c 0,-3.554 -2.882,-6.434 -6.435,-6.434 -3.555,0 -6.435,2.88 -6.435,6.434 0,3.554 2.88,6.435 6.435,6.435 C -2.882,6.435 0,3.554 0,0"
             style="fill:#84dbff;fill-opacity:1;fill-rule:nonzero;stroke:none"
             id="path666"
             inkscape:connector-curvature="0" />
        </g>
        <g
           id="g668"
           transform="translate(3101.481,437.25641)">
          <path
             d="m 0,0 -27.009,41.248 c 11.99,9.41 19.448,22.033 19.764,36.055 0.68,30.178 -31.945,55.39 -72.874,56.312 -40.93,0.921 -74.66,-22.793 -75.339,-52.973 -0.682,-30.181 31.947,-55.392 72.876,-56.314 9.335,-0.211 18.285,0.872 26.563,3.01 C -36.449,16.366 0,0 0,0"
             style="fill:#cdd5d8;fill-opacity:1;fill-rule:nonzero;stroke:none"
             id="path670"
             inkscape:connector-curvature="0" />
        </g>
        <g
           id="g672"
           transform="translate(3340.3291,569.48981)">
          <path
             d="m 0,0 c 0.654,-1.225 1.256,-2.463 1.803,-3.709 2.12,-4.826 3.548,-9.982 4.242,-15.325 l 0.294,-2.256 -117.334,-0.064 c -4.414,-0.002 -8.564,-1.724 -11.684,-4.847 -3.119,-3.123 -4.836,-7.275 -4.834,-11.69 l 0.032,-60.875 c 0.005,-9.107 7.42,-16.516 16.528,-16.516 v -2 l 0.008,2 145.571,0.078 c 4.415,10e-4 8.564,1.723 11.684,4.845 3.12,3.123 4.836,7.274 4.834,11.689 l -0.032,60.874 c -0.005,9.109 -7.419,16.52 -16.526,16.52 l -11.056,-0.007 -0.59,0.928 C 17.626,-11.991 9.768,-5.037 0,0 m -110.943,-119.282 h -0.01 c -11.313,0 -20.522,9.203 -20.528,20.514 l -0.032,60.875 c -0.003,5.484 2.13,10.64 6.005,14.519 3.875,3.879 9.029,6.017 14.511,6.02 l 112.733,0.061 c -0.722,4.161 -1.928,8.18 -3.596,11.976 -1.309,2.986 -2.964,5.925 -4.919,8.737 l -3.854,5.541 6.251,-2.547 C 8.521,1.153 18.904,-7.026 25.714,-17.282 l 8.859,0.006 c 11.325,0 20.533,-9.204 20.539,-20.518 l 0.032,-60.874 c 0.004,-5.483 -2.129,-10.639 -6.004,-14.518 -3.875,-3.878 -9.029,-6.016 -14.512,-6.018 z"
             style="fill:#282d33;fill-opacity:1;fill-rule:nonzero;stroke:none"
             id="path674"
             inkscape:connector-curvature="0" />
        </g>
        <g
           id="g680"
           transform="translate(2624.5611,717.00541)">
          <path
             d="m 0,0 c 5.006,10.172 15.405,17.201 27.467,17.368 6.068,12.28 18.715,20.731 33.339,20.731 16.573,0 30.607,-10.848 35.404,-25.826 11.317,-1.522 20.053,-11.195 20.053,-22.928 0,-12.789 -10.367,-23.156 -23.158,-23.156 -0.946,0 -5.465,-0.012 -11.997,-0.022 5.523,-8.156 15.277,-19.965 15.277,-19.965 l -34.071,19.945 c -25.702,-0.017 -58.1,0.026 -58.371,0.35 -8.213,1.522 -14.437,8.71 -14.437,17.365 0,7.2 4.315,13.385 10.494,16.138"
             style="fill:#cdd5d8;fill-opacity:1;fill-rule:nonzero;stroke:none"
             id="path682"
             inkscape:connector-curvature="0" />
        </g>
        <g
           id="g684"
           transform="translate(3111.8262,715.06201)">
          <path
             d="M 0,0 H 55.605 V -41.74 H 26.452 L 13.167,-55.026 V -41.74 H 0 Z"
             style="fill:#cdd5d8;fill-opacity:1;fill-rule:nonzero;stroke:none"
             id="path686"
             inkscape:connector-curvature="0" />
        </g>
        <path
           d="m 3154.6579,697.05741 h -30.057 v 4 h 30.057 z"
           style="fill:#282d33;fill-opacity:1;fill-rule:nonzero;stroke:none"
           id="path688"
           inkscape:connector-curvature="0" />
        <path
           d="m 3154.6579,687.22641 h -30.057 v 4 h 30.057 z"
           style="fill:#282d33;fill-opacity:1;fill-rule:nonzero;stroke:none"
           id="path690"
           inkscape:connector-curvature="0" />
        <g
           id="g692"
           transform="translate(3103.1529,397.35401)">
          <path
             d="m 0,0 h -4 v 12.93 c 0,7.277 6.573,13.197 14.651,13.197 h 16.93 v -4 H 10.651 C 4.778,22.127 0,18.001 0,12.93 Z"
             style="fill:#282d33;fill-opacity:1;fill-rule:nonzero;stroke:none"
             id="path694"
             inkscape:connector-curvature="0" />
        </g>
        <g
           id="g696"
           transform="translate(3183.9673,396.28861)">
          <path
             d="m 0,0 h -4 v 13.995 c 0,5.071 -4.776,9.197 -10.647,9.197 h -17.997 v 4 h 17.997 C -6.571,27.192 0,21.272 0,13.995 Z"
             style="fill:#282d33;fill-opacity:1;fill-rule:nonzero;stroke:none"
             id="path698"
             inkscape:connector-curvature="0" />
        </g>
        <g
           id="g700"
           transform="translate(3150.4478,474.00831)">
          <path
             d="m 0,0 c -1.518,0 -2.753,-1.235 -2.753,-2.754 v -7.596 c 0,-1.518 1.235,-2.754 2.753,-2.754 h 15.055 c 1.519,0 2.754,1.236 2.754,2.754 v 7.596 C 17.809,-1.235 16.574,0 15.055,0 Z M 15.055,-17.104 H 0 c -3.724,0 -6.753,3.03 -6.753,6.754 v 7.596 C -6.753,0.97 -3.724,4 0,4 h 15.055 c 3.724,0 6.754,-3.03 6.754,-6.754 v -7.596 c 0,-3.724 -3.03,-6.754 -6.754,-6.754"
             style="fill:#282d33;fill-opacity:1;fill-rule:nonzero;stroke:none"
             id="path702"
             inkscape:connector-curvature="0" />
        </g>
        <g
           id="g704"
           transform="translate(3116.3804,474.00831)">
          <path
             d="m 0,0 c -1.519,0 -2.754,-1.235 -2.754,-2.754 v -7.596 c 0,-1.518 1.235,-2.754 2.754,-2.754 h 15.054 c 1.518,0 2.753,1.236 2.753,2.754 v 7.596 C 17.807,-1.235 16.572,0 15.054,0 Z M 15.054,-17.104 H 0 c -3.724,0 -6.754,3.03 -6.754,6.754 v 7.596 C -6.754,0.97 -3.724,4 0,4 h 15.054 c 3.724,0 6.753,-3.03 6.753,-6.754 v -7.596 c 0,-3.724 -3.029,-6.754 -6.753,-6.754"
             style="fill:#282d33;fill-opacity:1;fill-rule:nonzero;stroke:none"
             id="path706"
             inkscape:connector-curvature="0" />
        </g>
        <path
           d="m 3145.6939,469.25441 h -9.507 v 4 h 9.507 z"
           style="fill:#282d33;fill-opacity:1;fill-rule:nonzero;stroke:none"
           id="path708"
           inkscape:connector-curvature="0" />
        <g
           id="g710"
           transform="translate(3140.9419,417.46051)">
          <path
             d="m 0,0 c -15.497,0 -28.105,12.607 -28.105,28.104 v 13.32 h 4 V 28.104 C -24.105,14.814 -13.292,4 0,4 13.292,4 24.104,14.814 24.104,28.104 v 13.32 h 4 V 28.104 C 28.104,12.607 15.497,0 0,0"
             style="fill:#282d33;fill-opacity:1;fill-rule:nonzero;stroke:none"
             id="path712"
             inkscape:connector-curvature="0" />
        </g>
        <g
           id="g714"
           transform="translate(3170.3911,485.38721)">
          <path
             d="m 0,0 h -36.75 c -6.466,0 -11.727,5.261 -11.727,11.728 v 5.456 h 4 V 11.728 C -44.477,7.467 -41.011,4 -36.75,4 H 0 c 4.261,0 7.728,3.467 7.728,7.728 v 13.045 h -27.035 v 4 H 11.728 V 11.728 C 11.728,5.261 6.467,0 0,0"
             style="fill:#282d33;fill-opacity:1;fill-rule:nonzero;stroke:none"
             id="path716"
             inkscape:connector-curvature="0" />
        </g>
        <g
           id="g718"
           transform="translate(3167.5996,494.29351)">
          <path
             d="m 0,0 h -28.083 c -8.813,0 -8.813,5.517 -8.813,8.814 h 4 c 0,-3.405 0,-4.814 4.813,-4.814 H 0 Z"
             style="fill:#282d33;fill-opacity:1;fill-rule:nonzero;stroke:none"
             id="path720"
             inkscape:connector-curvature="0" />
        </g>
        <g
           id="g722"
           transform="translate(3125.9468,509.28761)">
          <path
             d="m 0,0 h -4 c 0,8.054 6.553,14.605 14.608,14.605 h 33.208 v -4 H 10.608 C 4.759,10.605 0,5.848 0,0"
             style="fill:#282d33;fill-opacity:1;fill-rule:nonzero;stroke:none"
             id="path724"
             inkscape:connector-curvature="0" />
        </g>
        <g
           id="g726"
           transform="translate(3116.3238,481.26031)">
          <path
             d="m 0,0 h -4 v 20.777 c 0,6.391 5.199,11.59 11.59,11.59 h 1.598 v -4 H 7.59 C 3.405,28.367 0,24.962 0,20.777 Z"
             style="fill:#282d33;fill-opacity:1;fill-rule:nonzero;stroke:none"
             id="path728"
             inkscape:connector-curvature="0" />
        </g>
        <path
           d="m 3146.4659,436.28341 h -11.011 v 4 h 11.011 z"
           style="fill:#282d33;fill-opacity:1;fill-rule:nonzero;stroke:none"
           id="path730"
           inkscape:connector-curvature="0" />
        <g
           id="g732"
           transform="translate(3144.9575,399.87941)">
          <path
             d="m 0,0 h -3.995 c -6.391,0 -11.59,5.199 -11.59,11.59 v 11.187 h 4 V 11.59 C -11.585,7.405 -8.18,4 -3.995,4 H 0 Z"
             style="fill:#282d33;fill-opacity:1;fill-rule:nonzero;stroke:none"
             id="path734"
             inkscape:connector-curvature="0" />
        </g>
        <g
           id="g2624"
           transform="matrix(-1,0,0,1,5591.0207,68.157969)">
          <path
             inkscape:connector-curvature="0"
             id="path564"
             style="fill:#282d33;fill-opacity:1;fill-rule:nonzero;stroke:none"
             d="m 0,0 h -4 v 14.366 c 0,7.442 6.723,13.495 14.987,13.495 h 17.045 v -4 H 10.987 C 4.929,23.861 0,19.602 0,14.366 Z"
             transform="matrix(-1,0,0,1,2979.5999,598.56111)" />
          <g
             transform="matrix(-1,0,0,1,5937.3027,13.152631)"
             id="g2606">
            <path
               transform="translate(3041.1573,585.43611)"
               d="m 0,0 h -4 v 14.366 c 0,5.236 -4.927,9.495 -10.984,9.495 h -17.174 v 4 h 17.174 C -6.722,27.861 0,21.808 0,14.366 Z"
               style="fill:#282d33;fill-opacity:1;fill-rule:nonzero;stroke:none"
               id="path560"
               inkscape:connector-curvature="0" />
            <path
               transform="translate(2998.0171,599.33651)"
               d="m 0,0 h -0.684 c -7.137,0 -12.944,5.806 -12.944,12.943 v 8.838 h 4 V 12.943 C -9.628,8.012 -5.616,4 -0.684,4 H 0 c 4.931,0 8.943,4.012 8.943,8.943 v 8.838 h 4 V 12.943 C 12.943,5.806 7.137,0 0,0"
               style="fill:#282d33;fill-opacity:1;fill-rule:nonzero;stroke:none"
               id="path568"
               inkscape:connector-curvature="0" />
            <path
               transform="translate(3026.8658,637.75051)"
               d="M 0,0 H -0.479 C -1.52,0 -2.532,0.204 -3.486,0.607 l 1.554,3.685 C -1.472,4.098 -0.984,4 -0.479,4 H 0 c 2.056,0 3.728,1.673 3.728,3.728 v 10.504 c 0,2.056 -1.672,3.729 -3.728,3.729 h -0.479 c -0.336,0 -0.667,-0.044 -0.985,-0.131 l -1.057,3.858 c 0.663,0.181 1.349,0.273 2.042,0.273 H 0 c 4.261,0 7.728,-3.467 7.728,-7.729 V 7.728 C 7.728,3.467 4.261,0 0,0"
               style="fill:#282d33;fill-opacity:1;fill-rule:nonzero;stroke:none"
               id="path572"
               inkscape:connector-curvature="0" />
            <g
               id="g574"
               transform="translate(2996.8579,617.15971)">
              <path
                 d="m 0,0 c -17.102,0 -31.015,13.913 -31.015,31.015 v 23.211 h 4 V 31.015 C -27.015,16.119 -14.896,4 0,4 14.896,4 27.015,16.119 27.015,31.015 v 23.211 h 4 V 31.015 C 31.015,13.913 17.102,0 0,0"
                 style="fill:#282d33;fill-opacity:1;fill-rule:nonzero;stroke:none"
                 id="path576"
                 inkscape:connector-curvature="0" />
            </g>
            <path
               transform="translate(2996.8579,625.70071)"
               d="m 0,0 c -12.392,0 -22.475,10.082 -22.475,22.474 h 4 C -18.475,12.287 -10.187,4 0,4 Z"
               style="fill:#282d33;fill-opacity:1;fill-rule:nonzero;stroke:none"
               id="path580"
               inkscape:connector-curvature="0" />
            <path
               transform="translate(2962.2652,647.68021)"
               d="m 0,0 h -4 v 37.822 c 0,6.839 5.563,12.403 12.402,12.403 h 3.576 c 2.915,3.819 7.419,6.068 12.254,6.068 h 50.802 v -12.98 c 0,-0.872 -0.076,-1.742 -0.226,-2.604 h 4.184 l -0.836,-2.61 C 73.983,25.069 59.253,15.969 42.336,15.969 30.621,15.969 19.598,20.411 12.638,27.893 9.705,27.891 7.321,25.505 7.321,22.572 v -9.078 h -4 v 9.078 c 0,5.139 4.18,9.321 9.32,9.321 h 1.792 l 0.598,-0.682 c 6.166,-7.04 16.373,-11.242 27.305,-11.242 14.009,0 26.289,6.76 30.982,16.74 h -3.971 l 0.982,2.687 c 0.468,1.281 0.705,2.599 0.705,3.917 v 8.98 H 24.232 c -3.853,0 -7.424,-1.932 -9.55,-5.167 L 14.089,46.225 H 8.402 C 3.769,46.225 0,42.456 0,37.822 Z"
               style="fill:#282d33;fill-opacity:1;fill-rule:nonzero;stroke:none"
               id="path584"
               inkscape:connector-curvature="0" />
            <path
               transform="translate(2965.8433,659.07431)"
               d="m 0,0 c -1.893,-0.774 -3.578,-2.118 -3.578,-3.091 v -10.504 c 0,-0.975 1.685,-2.319 3.578,-3.092 z m 4,-21.483 -2.207,0.229 c -3.363,0.351 -9.371,3.209 -9.371,7.659 v 10.504 c 0,4.447 6.007,7.307 9.37,7.658 L 4,4.797 Z"
               style="fill:#282d33;fill-opacity:1;fill-rule:nonzero;stroke:none"
               id="path588"
               inkscape:connector-curvature="0" />
            <path
               transform="translate(3007.9395,643.51611)"
               d="m 0,0 h -9.744 v 4 h 4.895 l -3.199,16.532 3.927,0.76 z"
               style="fill:#282d33;fill-opacity:1;fill-rule:nonzero;stroke:none"
               id="path592"
               inkscape:connector-curvature="0" />
            <path
               transform="translate(3091.9932,729.70901)"
               d="m 0,0 -0.058,-34.267 c -0.003,-1.508 0.632,-2.935 1.787,-4.017 1.191,-1.117 2.787,-1.734 4.491,-1.737 l 192.975,-0.327 0.011,-2 v 2 c 3.461,0 6.282,2.572 6.287,5.734 l 0.145,86.292 c 0.003,1.508 -0.631,2.935 -1.785,4.017 -1.191,1.116 -2.786,1.733 -4.491,1.735 L 6.385,57.758 c -3.471,0 -6.291,-2.572 -6.297,-5.734 l -0.06,-35.7 -24.194,-33.199 z m 199.206,-44.348 v 0 h -0.017 L 6.214,-44.021 c -2.722,0.004 -5.287,1.005 -7.221,2.819 -1.972,1.848 -3.055,4.314 -3.051,6.942 L -4.013,-7.681 -31.679,-27 l -2.761,2.818 30.47,41.812 0.058,34.401 c 0.009,5.364 4.623,9.727 10.287,9.727 L 199.368,61.43 c 2.722,-0.003 5.287,-1.004 7.221,-2.817 1.971,-1.848 3.054,-4.314 3.049,-6.942 l -0.145,-86.291 c -0.008,-5.364 -4.623,-9.728 -10.287,-9.728"
               style="fill:#282d33;fill-opacity:1;fill-rule:nonzero;stroke:none"
               id="path678"
               inkscape:connector-curvature="0" />
            <path
               d="m 3268.1489,753.44041 h -153.696 v 4 h 153.696 z"
               style="fill:#282d33;fill-opacity:1;fill-rule:nonzero;stroke:none"
               id="path736"
               inkscape:connector-curvature="0" />
            <path
               d="m 3268.1489,738.74441 h -153.696 v 4 h 153.696 z"
               style="fill:#282d33;fill-opacity:1;fill-rule:nonzero;stroke:none"
               id="path738"
               inkscape:connector-curvature="0" />
            <path
               d="m 3268.1489,724.04941 h -153.696 v 4 h 153.696 z"
               style="fill:#282d33;fill-opacity:1;fill-rule:nonzero;stroke:none"
               id="path740"
               inkscape:connector-curvature="0" />
          </g>
        </g>
        <path
           d="m 3343.8499,514.64941 h -78.688 v 4 h 78.688 z"
           style="fill:#282d33;fill-opacity:1;fill-rule:nonzero;stroke:none"
           id="path742"
           inkscape:connector-curvature="0" />
        <path
           d="m 3369.3669,501.94741 h -129.723 v 4 h 129.723 z"
           style="fill:#282d33;fill-opacity:1;fill-rule:nonzero;stroke:none"
           id="path744"
           inkscape:connector-curvature="0" />
        <path
           d="m 3360.2549,489.24441 h -111.499 v 4 h 111.499 z"
           style="fill:#282d33;fill-opacity:1;fill-rule:nonzero;stroke:none"
           id="path746"
           inkscape:connector-curvature="0" />
        <g
           id="g748"
           transform="translate(2783.7329,566.88141)">
          <path
             d="m 0,0 c -1.129,0 -2.083,-0.957 -2.083,-2.09 v -52.582 c 0,-1.153 0.934,-2.091 2.083,-2.091 h 87.999 l 13.063,-8.015 v 8.015 h 34.558 c 1.154,0 2.093,0.938 2.093,2.091 V -2.09 c 0,1.153 -0.939,2.09 -2.093,2.09 z M 105.062,-71.925 86.87,-60.763 H 0 c -3.354,0 -6.083,2.733 -6.083,6.091 V -2.09 C -6.083,1.268 -3.354,4 0,4 h 135.62 c 3.36,0 6.093,-2.732 6.093,-6.09 v -52.582 c 0,-3.358 -2.733,-6.091 -6.093,-6.091 h -30.558 z"
             style="fill:#282d33;fill-opacity:1;fill-rule:nonzero;stroke:none"
             id="path750"
             inkscape:connector-curvature="0" />
        </g>
        <path
           d="m 2834.6839,550.21941 h -42.223 v 4 h 42.223 z"
           style="fill:#282d33;fill-opacity:1;fill-rule:nonzero;stroke:none"
           id="path752"
           />
        <path
           d="m 2881.9729,550.21941 h -40.532 v 4 h 40.532 z"
           style="fill:#282d33;fill-opacity:1;fill-rule:nonzero;stroke:none"
           id="path754"
           />
        <path
           d="m 2901.8169,550.21941 h -35.466 v 4 h 35.466 z"
           style="fill:#282d33;fill-opacity:1;fill-rule:nonzero;stroke:none"
           id="path756"
           />
        <path
           d="m 2810.6159,537.13141 h -18.155 v 4 h 18.155 z"
           style="fill:#282d33;fill-opacity:1;fill-rule:nonzero;stroke:none"
           id="path758"
           />
        <path
           d="m 2880.2839,537.13141 h -62.067 v 4 h 62.067 z"
           style="fill:#282d33;fill-opacity:1;fill-rule:nonzero;stroke:none"
           id="path760"
           />
        <path
           d="m 2908.1509,537.13141 h -21.111 v 4 h 21.111 z"
           style="fill:#282d33;fill-opacity:1;fill-rule:nonzero;stroke:none"
           id="path762"
           />
        <path
           d="m 2834.6839,524.04141 h -42.223 v 4 h 42.223 z"
           style="fill:#282d33;fill-opacity:1;fill-rule:nonzero;stroke:none"
           id="path764"
           />
        <path
           d="m 2869.7289,524.04141 h -28.288 v 4 h 28.288 z"
           style="fill:#282d33;fill-opacity:1;fill-rule:nonzero;stroke:none"
           id="path766"
           />
        <g
           id="g768"
           transform="translate(2900.9536,487.02981)">
          <path
             d="m 0,0 c -10.595,0 -19.215,-8.619 -19.215,-19.213 0,-10.593 8.62,-19.212 19.215,-19.212 10.594,0 19.212,8.619 19.212,19.212 C 19.212,-8.619 10.594,0 0,0 m 0,-42.425 c -12.801,0 -23.215,10.413 -23.215,23.212 C -23.215,-6.413 -12.801,4 0,4 12.799,4 23.212,-6.413 23.212,-19.213 23.212,-32.012 12.799,-42.425 0,-42.425"
             style="fill:#282d33;fill-opacity:1;fill-rule:nonzero;stroke:none"
             id="path770"
             />
        </g>
        <g
           id="g772"
           transform="translate(2900.9502,476.46731)">
          <path
             d="m 0,0 c -3.3,0 -5.984,-2.686 -5.984,-5.987 0,-3.302 2.684,-5.988 5.984,-5.988 3.304,0 5.991,2.686 5.991,5.988 C 5.991,-2.686 3.304,0 0,0 m 0,-15.975 c -5.505,0 -9.984,4.481 -9.984,9.988 C -9.984,-0.48 -5.505,4 0,4 5.509,4 9.991,-0.48 9.991,-5.987 9.991,-11.494 5.509,-15.975 0,-15.975"
             style="fill:#282d33;fill-opacity:1;fill-rule:nonzero;stroke:none"
             id="path774"
             />
        </g>
        <g
           id="g776"
           transform="translate(2888.9795,453.85351)">
          <path
             d="m 0,0 c 3.344,-2.875 7.562,-4.449 11.971,-4.449 4.409,0 8.63,1.574 11.975,4.449 -0.124,3.192 -2.76,5.751 -5.984,5.751 H 5.983 C 2.761,5.751 0.124,3.192 0,0 m 11.971,-8.449 c -5.715,0 -11.165,2.169 -15.347,6.107 l -0.628,0.592 v 1.514 c 0,5.507 4.48,9.987 9.987,9.987 h 11.979 c 5.508,0 9.989,-4.48 9.989,-9.987 V -1.75 l -0.63,-0.592 C 23.139,-6.28 17.686,-8.449 11.971,-8.449"
             style="fill:#282d33;fill-opacity:1;fill-rule:nonzero;stroke:none"
             id="path778"
             />
        </g>
        <path
           d="m 3014.7369,515.67441 h -4 v 4 h 4 z m 8,0 h -4 v 4 h 4 z m 8,0 h -4 v 4 h 4 z"
           style="fill:#282d33;fill-opacity:1;fill-rule:nonzero;stroke:none"
           id="path780"
           />
        <g
           id="g782"
           transform="translate(3385.6646,738.83551)">
          <path
             d="m 0,0 c -0.313,-0.782 -0.627,-1.487 -0.94,-2.271 h -3.603 c 1.566,4.621 2.037,7.284 2.506,12.217 H -5.404 V 18.56 H 2.349 V 13.314 C 2.349,8.772 1.566,4.308 0,0 m -12.531,-2.271 h -3.681 c 1.332,3.838 2.585,8.145 2.585,12.217 h -3.446 v 8.614 h 7.753 v -4.776 c 0,-5.56 -0.94,-10.964 -3.211,-16.055"
             style="fill:#000000;fill-opacity:1;fill-rule:nonzero;stroke:none"
             id="path784"
             />
        </g>
        <g
           id="g786"
           transform="translate(3122.0811,825.25351)">
          <path
             d="m 0,0 2.863,-5.803 6.403,-0.93 -4.633,-4.516 1.094,-6.378 -5.727,3.011 -5.728,-3.011 1.095,6.378 -4.634,4.516 6.403,0.93 z"
             style="fill:#cdd5d8;fill-opacity:1;fill-rule:nonzero;stroke:none"
             id="path788"
             />
        </g>
        <g
           id="g790"
           transform="translate(3151.1118,825.25351)">
          <path
             d="m 0,0 2.863,-5.803 6.404,-0.93 -4.635,-4.516 1.095,-6.378 -5.727,3.011 -5.727,-3.011 1.094,6.378 -4.634,4.516 6.404,0.93 z"
             style="fill:#cdd5d8;fill-opacity:1;fill-rule:nonzero;stroke:none"
             id="path792"
             />
        </g>
        <g
           id="g794"
           transform="translate(3180.1431,825.25351)">
          <path
             d="m 0,0 2.863,-5.803 6.403,-0.93 -4.633,-4.516 1.093,-6.378 -5.726,3.011 -5.728,-3.011 1.094,6.378 -4.634,4.516 6.404,0.93 z"
             style="fill:#cdd5d8;fill-opacity:1;fill-rule:nonzero;stroke:none"
             id="path796"
             />
        </g>
        <g
           id="g798"
           transform="translate(3209.1739,825.25351)">
          <path
             d="m 0,0 2.863,-5.803 6.403,-0.93 -4.634,-4.516 1.095,-6.378 -5.727,3.011 -5.728,-3.011 1.095,6.378 -4.634,4.516 6.403,0.93 z"
             style="fill:#cdd5d8;fill-opacity:1;fill-rule:nonzero;stroke:none"
             id="path800"
             />
        </g>
        <g
           id="g802"
           transform="translate(3238.2046,825.25351)">
          <path
             d="m 0,0 2.863,-5.803 6.404,-0.93 -4.634,-4.516 1.094,-6.378 -5.727,3.011 -5.727,-3.011 1.093,6.378 -4.633,4.516 6.404,0.93 z"
             style="fill:#cdd5d8;fill-opacity:1;fill-rule:nonzero;stroke:none"
             id="path804"
             />
        </g>
        <g
           id="g1854"
           transform="translate(186.0692,375.62081)">
          <g
             transform="matrix(0.92288966,0,0,0.91612291,1574.4637,-1052.457)"
             id="g1650">
            <path
               d="m 980.31557,1363.5397 v 39.915 h -31.258 v -39.915 h -32.724 v 103.603 h 32.724 v -37.713 h 31.258 v 37.713 h 33.01803 v -103.603 h -33.01803"
               style="fill:#84dbff;fill-opacity:1;fill-rule:nonzero;stroke:none;stroke-width:0.09999999"
               id="path52"
               />
            <path
               d="m 1015.0226,1362.9777 h -4 v 104.3682 h 4 v -104.3682"
               style="fill:#282d33;fill-opacity:1;fill-rule:nonzero;stroke:none;stroke-width:0.08991721"
               id="path56"
               />
            <path
               d="m 983.40357,1363.5177 h -4 v 103.4772 h 4 v -103.4772"
               style="fill:#282d33;fill-opacity:1;fill-rule:nonzero;stroke:none;stroke-width:0.07380805"
               id="path110"
               />
            <path
               d="m 919.11057,1363.2897 h -4 v 103.9587 h 4 v -103.9587"
               style="fill:#282d33;fill-opacity:1;fill-rule:nonzero;stroke:none;stroke-width:0.08471505"
               id="path122"
               />
            <path
               d="m 951.56557,1364.1077 h -4 v 49.066 h 4 v -49.066"
               style="fill:#282d33;fill-opacity:1;fill-rule:nonzero;stroke:none;stroke-width:0.09999999"
               id="path150-2"
               />
          </g>
          <path
             id="path66-4"
             style="fill:#84dbff;fill-opacity:1;fill-rule:nonzero;stroke:none;stroke-width:0.99999994"
             d="m 2595.97,267.23147 c -0.918,1.312 -2.23,2.101 -2.756,2.363 -3.019,1.706 -6.431,1.837 -9.843,1.837 h -11.943 v -21.524 h 12.206 c 5.381,0 11.418,0.656 13.517,6.693 0.131,0.526 0.657,2.233 0.657,4.069 0,2.232 -0.657,4.726 -1.838,6.562 m 1.969,-69.033 -17.98,32.679 h -8.531 v -32.679 h -29.398 v 92.657 h 50.134 c 2.625,0 5.381,-0.131 8.005,-0.394 4.07,-0.393 15.881,-1.443 22.575,-12.599 1.575,-2.756 4.33,-8.53 4.33,-16.668 0,-8.793 -3.412,-16.798 -10.893,-21.785 -1.968,-1.314 -3.674,-2.102 -8.137,-3.807 l 22.706,-37.404 z" />
          <path
             id="path80-9"
             style="fill:#282d33;fill-opacity:1;fill-rule:nonzero;stroke:none;stroke-width:0.99999994"
             d="m 2573.4289,249.90707 h -4 v 21.524 h 4 z m 0,-53.709 h -33.399 v 96.657 h 52.134 c 2.73,0 5.568,-0.139 8.205,-0.403 l -0.399,-3.98 c -2.507,0.251 -5.206,0.383 -7.806,0.383 h -48.134 v -88.657 h 25.399 v 30.68 h 4 z m 60.875,0 h -36.365 v 4 h 29.257 l -20.861,34.367 3.419,2.075 z" />
          <path
             id="path504-6"
             style="fill:#84dbff;fill-opacity:1;fill-rule:nonzero;stroke:none;stroke-width:1.27700901"
             d="m 2745.1151,206.71317 c -11.1444,-8.2048 -25.7164,-7.9596 -29.3891,-7.9596 -12.613,0 -24.613,2.0803 -34.8993,9.7972 -3.9192,2.9371 -6.2446,5.5103 -9.1843,9.3043 l 20.9391,13.3486 c 1.8376,-2.9384 2.9397,-4.2857 4.1644,-5.2651 4.8973,-4.2869 13.9602,-6.1233 19.9596,-6.1233 7.7144,0 13.1034,2.3267 13.1034,6.6124 0,0.9794 -0.4904,1.7137 -0.613,2.0802 -0.6117,1.226 -1.5924,2.3293 -4.1643,3.1849 -3.061,1.102 -8.5713,1.8376 -16.2857,3.4288 -11.8775,2.3267 -18.2459,5.2651 -22.409,8.939 -2.6944,2.3267 -7.593,8.0822 -7.4692,17.5116 0,2.3255 0.1226,7.5919 3.1836,13.1022 8.8152,16.1643 31.7158,15.9192 35.022,15.9192 4.4082,0 19.9596,-0.244 32.3275,-9.3069 2.6945,-1.9589 4.2869,-3.6727 6.6123,-5.9994 l -17.2651,-14.328 c -1.1034,1.4698 -1.7151,2.2041 -2.4493,2.8171 -5.0212,4.6534 -13.7164,6.0006 -20.2062,6.0006 -0.6116,0 -3.9178,0 -6.4897,-1.102 -0.4891,-0.2452 -3.4288,-1.5925 -3.4288,-4.5309 0,-1.5911 0.9795,-3.0609 2.2041,-3.9191 2.2054,-1.346 7.3479,-2.3267 9.6746,-2.6932 3.061,-0.4904 11.1432,-1.5924 19.7145,-4.4095 5.389,-1.7138 18.7363,-6.4898 18.7363,-23.7562 0,-12.857 -7.5918,-19.8371 -11.3884,-22.6529" />
          <path
             id="path528-6"
             style="fill:#282d33;fill-opacity:1;fill-rule:nonzero;stroke:none;stroke-width:1.27700901"
             d="m 2724.1667,229.29027 c -1.7891,0.6437 -4.7837,1.2004 -8.5739,1.9053 -2.1721,0.4036 -4.6291,0.862 -7.3619,1.4239 -11.3628,2.2271 -18.6431,5.1655 -23.5838,9.5265 -2.5387,2.1926 -8.4768,8.5164 -8.3338,19.4603 0,1.9526 0,8.0005 3.5054,14.3089 8.4755,15.54 28.6893,17.2333 37.0537,17.2333 h 0.058 0.143 c 13.3869,0 25.0868,-3.3892 33.8382,-9.8011 2.5119,-1.8261 4.1579,-3.4849 6.0632,-5.4043 l 0.8454,-0.8492 -3.6127,-3.6127 -0.8581,0.8633 c -1.8938,1.9079 -3.2628,3.2858 -5.4503,4.8769 -7.7629,5.6891 -18.7082,8.819 -30.8257,8.819 h -0.1469 c -7.3619,-0.013 -25.4393,-1.4008 -32.6326,-14.5885 -2.872,-5.1694 -2.872,-10.2199 -2.872,-11.88 -0.1162,-8.8306 4.5665,-13.8352 6.5855,-15.5783 4.2422,-3.7442 10.7843,-6.3186 21.2303,-8.3657 2.7213,-0.5606 5.1463,-1.0114 7.2904,-1.4098 4.1746,-0.7764 7.1909,-1.3383 9.3682,-2.1211 z m -7.9992,-33.0924 h -0.1354 -0.3052 c -15.4811,0 -27.0572,3.2755 -36.433,10.308 -4.1925,3.1429 -6.6341,5.863 -9.6708,9.7834 l 4.0379,3.1287 c 2.7634,-3.5667 4.9675,-6.0301 8.6977,-8.8254 8.5623,-6.4221 18.8525,-9.2865 33.3682,-9.2865 h 0.3142 c 11.5122,0.034 20.8076,2.4927 27.5604,7.4641 4.716,3.499 10.3476,9.9173 10.3476,20.5969 0,14.2782 -9.6759,19.007 -16.9561,21.3209 -7.6046,2.4991 -14.8695,3.6267 -18.3609,4.1682 l -0.9833,0.1545 0.8084,5.0429 0.959,-0.1494 c 3.6254,-0.5631 11.1687,-1.7329 19.1488,-4.3559 13.5899,-4.3214 20.4921,-13.1327 20.4921,-26.1812 0,-13.4788 -7.7821,-21.2635 -12.4202,-24.705 -7.6301,-5.6176 -17.8806,-8.4628 -30.4694,-8.464" />
          <path
             id="path70-8"
             style="fill:#84dbff;fill-opacity:1;fill-rule:nonzero;stroke:none;stroke-width:1.04051208"
             d="m 2843.6017,236.89397 v -40.6958 h -30.4864 v 40.6958 l -38.515,56.0422 h 35.1125 l 18.9179,-32.2015 18.5093,32.2015 h 35.1135 z" />
          <path
             id="path84-0"
             style="fill:#282d33;fill-opacity:1;fill-rule:nonzero;stroke:none;stroke-width:1.04051208"
             d="m 2826.8457,259.67177 -18.9178,32.2015 3.5703,2.1257 18.9168,-32.2015 z m 18.4595,-23.9692 -3.4065,2.3826 38.6507,56.0411 3.4066,-2.3814 z m -30.1163,-39.5045 h -4.148 v 40.6958 h 4.148 z" />
          <g
             transform="matrix(1.4447193,0,0,1.4277266,672.22639,-1756.2508)"
             id="g1728">
            <path
               d="m 1635.0432,1418.5375 v -51.015 h -21.384 v 51.015 h -17.26 v 16.686 h 55.809 v -16.686 z"
               style="fill:#84dbff;fill-opacity:1;fill-rule:nonzero;stroke:none;stroke-width:0.99999994"
               id="path476-0"
            />
            <path
               d="m 1637.0432,1367.523 h -4 v 53.015 h 17.165 v 14.685 h 4 v -18.685 h -17.165 z"
               style="fill:#282d33;fill-opacity:1;fill-rule:nonzero;stroke:none;stroke-width:0.99999994"
               id="path516-4"
                />
          </g>
          <path
             id="path468-3"
             style="fill:#84dbff;fill-opacity:1;fill-rule:nonzero;stroke:none;stroke-width:1.34880078"
             d="m 3079.7121,196.19757 v 93.8834 h 70.3208 v -20.6113 h -42.1416 v -13.9646 h 39.3749 v -20.3452 h -39.5008 v -18.6158 h 46.0419 v -20.3465 z" />
          <path
             id="path508-2"
             style="fill:#282d33;fill-opacity:1;fill-rule:nonzero;stroke:none;stroke-width:1.34880078"
             d="m 3147.2663,252.73207 h -41.9986 v 16.7367 h 5.2475 v -11.1897 h 36.7511 z m 6.5411,-38.9624 h -48.6657 v 21.3894 h 5.2476 v -15.8424 h 43.4181 z m -71.4714,-17.5716 h -5.2476 v 96.657 h 72.9447 v -5.5471 h -67.6971 z" />
          <path
             inkscape:connector-curvature="0"
             id="path482-1"
             style="fill:#84dbff;fill-opacity:1;fill-rule:nonzero;stroke:none;stroke-width:1.39577377"
             d="m 3277.3914,196.18897 0.2683,68.0921 -18.9918,-68.0921 h -22.3603 l -18.7234,68.0921 0.1349,-68.0921 h -28.5579 v 93.8923 h 43.1051 l 15.4898,-59.0495 15.2215,59.0495 h 43.1051 v -93.8923 z" />
          <path
             id="path524-7"
             style="fill:#282d33;fill-opacity:1;fill-rule:nonzero;stroke:none;stroke-width:1.39577377"
             d="m 3189.1612,196.18897 h -5.6189 v 96.6661 h 34.7344 v -5.5476 h -29.1155 z" />
          <path
             id="path524-7-2"
             style="fill:#282d33;fill-opacity:1;fill-rule:nonzero;stroke:none;stroke-width:1.0357585"
             d="m 3238.9377,196.19807 -4.1083,-1.0801 -19.9424,67.5585 c 6.5315,1.717 2.7944,0.7889 4.0936,1.1303 z" />
          <path
             id="path504-6-7"
             style="fill:#84dbff;fill-opacity:1;fill-rule:nonzero;stroke:none;stroke-width:1.27700901"
             d="m 2955.8979,206.71317 c -11.1444,-8.2048 -25.7164,-7.9596 -29.3891,-7.9596 -12.613,0 -24.613,2.0803 -34.8993,9.7972 -3.9192,2.9371 -6.2446,5.5103 -9.1843,9.3043 l 20.9391,13.3486 c 1.8376,-2.9384 2.9397,-4.2857 4.1644,-5.2651 4.8973,-4.2869 13.9602,-6.1233 19.9596,-6.1233 7.7144,0 13.1034,2.3267 13.1034,6.6124 0,0.9794 -0.4904,1.7137 -0.613,2.0802 -0.6117,1.226 -1.5924,2.3293 -4.1643,3.1849 -3.061,1.102 -8.5713,1.8376 -16.2857,3.4288 -11.8775,2.3267 -18.2459,5.2651 -22.409,8.939 -2.6944,2.3267 -7.593,8.0822 -7.4692,17.5116 0,2.3255 0.1226,7.5919 3.1836,13.1022 8.8152,16.1643 31.7158,15.9192 35.022,15.9192 4.4082,0 19.9596,-0.244 32.3275,-9.3069 2.6945,-1.9589 4.2869,-3.6727 6.6123,-5.9994 l -17.2651,-14.328 c -1.1034,1.4698 -1.7151,2.2041 -2.4493,2.8171 -5.0212,4.6534 -13.7164,6.0006 -20.2062,6.0006 -0.6116,0 -3.9178,0 -6.4897,-1.102 -0.4891,-0.2452 -3.4288,-1.5925 -3.4288,-4.5309 0,-1.5911 0.9795,-3.0609 2.2041,-3.9191 2.2054,-1.346 7.3479,-2.3267 9.6746,-2.6932 3.061,-0.4904 11.1432,-1.5924 19.7145,-4.4095 5.389,-1.7138 18.7363,-6.4898 18.7363,-23.7562 0,-12.857 -7.5918,-19.8371 -11.3884,-22.6529" />
          <path
             id="path528-6-9"
             style="fill:#282d33;fill-opacity:1;fill-rule:nonzero;stroke:none;stroke-width:1.27700901"
             d="m 2934.9495,229.29027 c -1.7891,0.6437 -4.7837,1.2004 -8.5739,1.9053 -2.1721,0.4036 -4.6291,0.862 -7.3619,1.4239 -11.3628,2.2271 -18.6431,5.1655 -23.5838,9.5265 -2.5387,2.1926 -8.4768,8.5164 -8.3338,19.4603 0,1.9526 0,8.0005 3.5054,14.3089 8.4755,15.54 28.6893,17.2333 37.0537,17.2333 h 0.058 0.143 c 13.3869,0 25.0868,-3.3892 33.8382,-9.8011 2.5119,-1.8261 4.1579,-3.4849 6.0632,-5.4043 l 0.8454,-0.8492 -3.6127,-3.6127 -0.8581,0.8633 c -1.8938,1.9079 -3.2628,3.2858 -5.4503,4.8769 -7.7629,5.6891 -18.7082,8.819 -30.8257,8.819 h -0.1469 c -7.3619,-0.013 -25.4393,-1.4008 -32.6326,-14.5885 -2.872,-5.1694 -2.872,-10.2199 -2.872,-11.88 -0.1162,-8.8306 4.5665,-13.8352 6.5855,-15.5783 4.2422,-3.7442 10.7843,-6.3186 21.2303,-8.3657 2.7213,-0.5606 5.1463,-1.0114 7.2904,-1.4098 4.1746,-0.7764 7.1909,-1.3383 9.3682,-2.1211 z m -7.9992,-33.0924 h -0.1354 -0.3052 c -15.4811,0 -27.0572,3.2755 -36.433,10.308 -4.1925,3.1429 -6.6341,5.863 -9.6708,9.7834 l 4.0379,3.1287 c 2.7634,-3.5667 4.9675,-6.0301 8.6977,-8.8254 8.5623,-6.4221 18.8525,-9.2865 33.3682,-9.2865 h 0.3142 c 11.5122,0.034 20.8076,2.4927 27.5604,7.4641 4.716,3.499 10.3476,9.9173 10.3476,20.5969 0,14.2782 -9.6759,19.007 -16.9561,21.3209 -7.6046,2.4991 -14.8695,3.6267 -18.3609,4.1682 l -0.9833,0.1545 0.8084,5.0429 0.959,-0.1494 c 3.6254,-0.5631 11.1687,-1.7329 19.1488,-4.3559 13.5899,-4.3214 20.4921,-13.1327 20.4921,-26.1812 0,-13.4788 -7.7821,-21.2635 -12.4202,-24.705 -7.6301,-5.6176 -17.8806,-8.4628 -30.4694,-8.464" />
        </g>
      </g>
    </g>
  </g>
  <style
     id="style1227"><![CDATA[.B{fill:#ffd23d}.C{fill:#282d33}.D{fill:#fff}.E{fill:#84dbff}]]></style>
</svg>
